<svg xmlns="http://www.w3.org/2000/svg" version="1.1" xmlns:xlink="http://www.w3.org/1999/xlink" xmlns:svgjs="http://svgjs.dev/svgjs" width="1920" height="1080" preserveAspectRatio="none" viewBox="0 0 1920 1080"><g mask="url(&quot;#SvgjsMask1229&quot;)" fill="none"><rect width="1920" height="1080" x="0" y="0" fill="rgba(185, 153, 255, 1)"></rect><use xlink:href="#SvgjsSymbol1236" x="0" y="0"></use><use xlink:href="#SvgjsSymbol1236" x="0" y="720"></use><use xlink:href="#SvgjsSymbol1236" x="720" y="0"></use><use xlink:href="#SvgjsSymbol1236" x="720" y="720"></use><use xlink:href="#SvgjsSymbol1236" x="1440" y="0"></use><use xlink:href="#SvgjsSymbol1236" x="1440" y="720"></use></g><defs><mask id="SvgjsMask1229"><rect width="1920" height="1080" fill="#ffffff"></rect></mask><path d="M-1 0 a1 1 0 1 0 2 0 a1 1 0 1 0 -2 0z" id="SvgjsPath1233"></path><path d="M-3 0 a3 3 0 1 0 6 0 a3 3 0 1 0 -6 0z" id="SvgjsPath1235"></path><path d="M-5 0 a5 5 0 1 0 10 0 a5 5 0 1 0 -10 0z" id="SvgjsPath1232"></path><path d="M2 -2 L-2 2z" id="SvgjsPath1231"></path><path d="M6 -6 L-6 6z" id="SvgjsPath1230"></path><path d="M30 -30 L-30 30z" id="SvgjsPath1234"></path></defs><symbol id="SvgjsSymbol1236"><use xlink:href="#SvgjsPath1230" x="30" y="30" stroke="rgba(150, 102, 255, 1)"></use><use xlink:href="#SvgjsPath1231" x="30" y="90" stroke="rgba(150, 102, 255, 1)"></use><use xlink:href="#SvgjsPath1230" x="30" y="150" stroke="rgba(150, 102, 255, 1)"></use><use xlink:href="#SvgjsPath1232" x="30" y="210" stroke="rgba(150, 102, 255, 1)"></use><use xlink:href="#SvgjsPath1231" x="30" y="270" stroke="rgba(150, 102, 255, 1)"></use><use xlink:href="#SvgjsPath1230" x="30" y="330" stroke="rgba(150, 102, 255, 1)"></use><use xlink:href="#SvgjsPath1230" x="30" y="390" stroke="rgba(150, 102, 255, 1)"></use><use xlink:href="#SvgjsPath1230" x="30" y="450" stroke="rgba(150, 102, 255, 1)"></use><use xlink:href="#SvgjsPath1233" x="30" y="510" stroke="rgba(150, 102, 255, 1)"></use><use xlink:href="#SvgjsPath1234" x="30" y="570" stroke="rgba(150, 102, 255, 1)" stroke-width="3"></use><use xlink:href="#SvgjsPath1233" x="30" y="630" stroke="rgba(150, 102, 255, 1)"></use><use xlink:href="#SvgjsPath1235" x="30" y="690" stroke="rgba(150, 102, 255, 1)"></use><use xlink:href="#SvgjsPath1235" x="90" y="30" stroke="rgba(150, 102, 255, 1)"></use><use xlink:href="#SvgjsPath1230" x="90" y="90" stroke="rgba(150, 102, 255, 1)"></use><use xlink:href="#SvgjsPath1235" x="90" y="150" stroke="rgba(150, 102, 255, 1)"></use><use xlink:href="#SvgjsPath1230" x="90" y="210" stroke="rgba(150, 102, 255, 1)"></use><use xlink:href="#SvgjsPath1231" x="90" y="270" stroke="rgba(150, 102, 255, 1)"></use><use xlink:href="#SvgjsPath1232" x="90" y="330" stroke="rgba(150, 102, 255, 1)"></use><use xlink:href="#SvgjsPath1230" x="90" y="390" stroke="rgba(150, 102, 255, 1)"></use><use xlink:href="#SvgjsPath1230" x="90" y="450" stroke="rgba(150, 102, 255, 1)"></use><use xlink:href="#SvgjsPath1232" x="90" y="510" stroke="rgba(150, 102, 255, 1)"></use><use xlink:href="#SvgjsPath1231" x="90" y="570" stroke="rgba(150, 102, 255, 1)"></use><use xlink:href="#SvgjsPath1232" x="90" y="630" stroke="rgba(150, 102, 255, 1)"></use><use xlink:href="#SvgjsPath1232" x="90" y="690" stroke="rgba(150, 102, 255, 1)"></use><use xlink:href="#SvgjsPath1230" x="150" y="30" stroke="rgba(150, 102, 255, 1)"></use><use xlink:href="#SvgjsPath1233" x="150" y="90" stroke="rgba(150, 102, 255, 1)"></use><use xlink:href="#SvgjsPath1233" x="150" y="150" stroke="rgba(150, 102, 255, 1)"></use><use xlink:href="#SvgjsPath1234" x="150" y="210" stroke="rgba(150, 102, 255, 1)" stroke-width="3"></use><use xlink:href="#SvgjsPath1232" x="150" y="270" stroke="rgba(150, 102, 255, 1)"></use><use xlink:href="#SvgjsPath1230" x="150" y="330" stroke="rgba(150, 102, 255, 1)"></use><use xlink:href="#SvgjsPath1230" x="150" y="390" stroke="rgba(150, 102, 255, 1)"></use><use xlink:href="#SvgjsPath1232" x="150" y="450" stroke="rgba(150, 102, 255, 1)"></use><use xlink:href="#SvgjsPath1232" x="150" y="510" stroke="rgba(150, 102, 255, 1)"></use><use xlink:href="#SvgjsPath1232" x="150" y="570" stroke="rgba(150, 102, 255, 1)"></use><use xlink:href="#SvgjsPath1231" x="150" y="630" stroke="rgba(150, 102, 255, 1)"></use><use xlink:href="#SvgjsPath1231" x="150" y="690" stroke="rgba(150, 102, 255, 1)"></use><use xlink:href="#SvgjsPath1230" x="210" y="30" stroke="rgba(150, 102, 255, 1)"></use><use xlink:href="#SvgjsPath1233" x="210" y="90" stroke="rgba(150, 102, 255, 1)"></use><use xlink:href="#SvgjsPath1232" x="210" y="150" stroke="rgba(150, 102, 255, 1)"></use><use xlink:href="#SvgjsPath1233" x="210" y="210" stroke="rgba(150, 102, 255, 1)"></use><use xlink:href="#SvgjsPath1232" x="210" y="270" stroke="rgba(150, 102, 255, 1)"></use><use xlink:href="#SvgjsPath1234" x="210" y="330" stroke="rgba(150, 102, 255, 1)" stroke-width="3"></use><use xlink:href="#SvgjsPath1232" x="210" y="390" stroke="rgba(150, 102, 255, 1)"></use><use xlink:href="#SvgjsPath1235" x="210" y="450" stroke="rgba(150, 102, 255, 1)"></use><use xlink:href="#SvgjsPath1232" x="210" y="510" stroke="rgba(150, 102, 255, 1)"></use><use xlink:href="#SvgjsPath1230" x="210" y="570" stroke="rgba(150, 102, 255, 1)"></use><use xlink:href="#SvgjsPath1230" x="210" y="630" stroke="rgba(150, 102, 255, 1)"></use><use xlink:href="#SvgjsPath1230" x="210" y="690" stroke="rgba(150, 102, 255, 1)"></use><use xlink:href="#SvgjsPath1233" x="270" y="30" stroke="rgba(150, 102, 255, 1)"></use><use xlink:href="#SvgjsPath1231" x="270" y="90" stroke="rgba(150, 102, 255, 1)"></use><use xlink:href="#SvgjsPath1230" x="270" y="150" stroke="rgba(150, 102, 255, 1)"></use><use xlink:href="#SvgjsPath1232" x="270" y="210" stroke="rgba(150, 102, 255, 1)"></use><use xlink:href="#SvgjsPath1230" x="270" y="270" stroke="rgba(150, 102, 255, 1)"></use><use xlink:href="#SvgjsPath1230" x="270" y="330" stroke="rgba(150, 102, 255, 1)"></use><use xlink:href="#SvgjsPath1230" x="270" y="390" stroke="rgba(150, 102, 255, 1)"></use><use xlink:href="#SvgjsPath1232" x="270" y="450" stroke="rgba(150, 102, 255, 1)"></use><use xlink:href="#SvgjsPath1231" x="270" y="510" stroke="rgba(150, 102, 255, 1)"></use><use xlink:href="#SvgjsPath1231" x="270" y="570" stroke="rgba(150, 102, 255, 1)"></use><use xlink:href="#SvgjsPath1230" x="270" y="630" stroke="rgba(150, 102, 255, 1)"></use><use xlink:href="#SvgjsPath1231" x="270" y="690" stroke="rgba(150, 102, 255, 1)"></use><use xlink:href="#SvgjsPath1235" x="330" y="30" stroke="rgba(150, 102, 255, 1)"></use><use xlink:href="#SvgjsPath1235" x="330" y="90" stroke="rgba(150, 102, 255, 1)"></use><use xlink:href="#SvgjsPath1231" x="330" y="150" stroke="rgba(150, 102, 255, 1)"></use><use xlink:href="#SvgjsPath1235" x="330" y="210" stroke="rgba(150, 102, 255, 1)"></use><use xlink:href="#SvgjsPath1232" x="330" y="270" stroke="rgba(150, 102, 255, 1)"></use><use xlink:href="#SvgjsPath1231" x="330" y="330" stroke="rgba(150, 102, 255, 1)"></use><use xlink:href="#SvgjsPath1235" x="330" y="390" stroke="rgba(150, 102, 255, 1)"></use><use xlink:href="#SvgjsPath1230" x="330" y="450" stroke="rgba(150, 102, 255, 1)"></use><use xlink:href="#SvgjsPath1231" x="330" y="510" stroke="rgba(150, 102, 255, 1)"></use><use xlink:href="#SvgjsPath1232" x="330" y="570" stroke="rgba(150, 102, 255, 1)"></use><use xlink:href="#SvgjsPath1232" x="330" y="630" stroke="rgba(150, 102, 255, 1)"></use><use xlink:href="#SvgjsPath1232" x="330" y="690" stroke="rgba(150, 102, 255, 1)"></use><use xlink:href="#SvgjsPath1230" x="390" y="30" stroke="rgba(150, 102, 255, 1)"></use><use xlink:href="#SvgjsPath1230" x="390" y="90" stroke="rgba(150, 102, 255, 1)"></use><use xlink:href="#SvgjsPath1235" x="390" y="150" stroke="rgba(150, 102, 255, 1)"></use><use xlink:href="#SvgjsPath1234" x="390" y="210" stroke="rgba(150, 102, 255, 1)" stroke-width="3"></use><use xlink:href="#SvgjsPath1233" x="390" y="270" stroke="rgba(150, 102, 255, 1)"></use><use xlink:href="#SvgjsPath1232" x="390" y="330" stroke="rgba(150, 102, 255, 1)"></use><use xlink:href="#SvgjsPath1230" x="390" y="390" stroke="rgba(150, 102, 255, 1)"></use><use xlink:href="#SvgjsPath1232" x="390" y="450" stroke="rgba(150, 102, 255, 1)"></use><use xlink:href="#SvgjsPath1232" x="390" y="510" stroke="rgba(150, 102, 255, 1)"></use><use xlink:href="#SvgjsPath1235" x="390" y="570" stroke="rgba(150, 102, 255, 1)"></use><use xlink:href="#SvgjsPath1230" x="390" y="630" stroke="rgba(150, 102, 255, 1)"></use><use xlink:href="#SvgjsPath1232" x="390" y="690" stroke="rgba(150, 102, 255, 1)"></use><use xlink:href="#SvgjsPath1231" x="450" y="30" stroke="rgba(150, 102, 255, 1)"></use><use xlink:href="#SvgjsPath1232" x="450" y="90" stroke="rgba(150, 102, 255, 1)"></use><use xlink:href="#SvgjsPath1230" x="450" y="150" stroke="rgba(150, 102, 255, 1)"></use><use xlink:href="#SvgjsPath1230" x="450" y="210" stroke="rgba(150, 102, 255, 1)"></use><use xlink:href="#SvgjsPath1230" x="450" y="270" stroke="rgba(150, 102, 255, 1)"></use><use xlink:href="#SvgjsPath1234" x="450" y="330" stroke="rgba(150, 102, 255, 1)" stroke-width="3"></use><use xlink:href="#SvgjsPath1232" x="450" y="390" stroke="rgba(150, 102, 255, 1)"></use><use xlink:href="#SvgjsPath1230" x="450" y="450" stroke="rgba(150, 102, 255, 1)"></use><use xlink:href="#SvgjsPath1231" x="450" y="510" stroke="rgba(150, 102, 255, 1)"></use><use xlink:href="#SvgjsPath1230" x="450" y="570" stroke="rgba(150, 102, 255, 1)"></use><use xlink:href="#SvgjsPath1231" x="450" y="630" stroke="rgba(150, 102, 255, 1)"></use><use xlink:href="#SvgjsPath1233" x="450" y="690" stroke="rgba(150, 102, 255, 1)"></use><use xlink:href="#SvgjsPath1235" x="510" y="30" stroke="rgba(150, 102, 255, 1)"></use><use xlink:href="#SvgjsPath1232" x="510" y="90" stroke="rgba(150, 102, 255, 1)"></use><use xlink:href="#SvgjsPath1231" x="510" y="150" stroke="rgba(150, 102, 255, 1)"></use><use xlink:href="#SvgjsPath1235" x="510" y="210" stroke="rgba(150, 102, 255, 1)"></use><use xlink:href="#SvgjsPath1232" x="510" y="270" stroke="rgba(150, 102, 255, 1)"></use><use xlink:href="#SvgjsPath1232" x="510" y="330" stroke="rgba(150, 102, 255, 1)"></use><use xlink:href="#SvgjsPath1231" x="510" y="390" stroke="rgba(150, 102, 255, 1)"></use><use xlink:href="#SvgjsPath1230" x="510" y="450" stroke="rgba(150, 102, 255, 1)"></use><use xlink:href="#SvgjsPath1232" x="510" y="510" stroke="rgba(150, 102, 255, 1)"></use><use xlink:href="#SvgjsPath1235" x="510" y="570" stroke="rgba(150, 102, 255, 1)"></use><use xlink:href="#SvgjsPath1232" x="510" y="630" stroke="rgba(150, 102, 255, 1)"></use><use xlink:href="#SvgjsPath1231" x="510" y="690" stroke="rgba(150, 102, 255, 1)"></use><use xlink:href="#SvgjsPath1230" x="570" y="30" stroke="rgba(150, 102, 255, 1)"></use><use xlink:href="#SvgjsPath1234" x="570" y="90" stroke="rgba(150, 102, 255, 1)" stroke-width="3"></use><use xlink:href="#SvgjsPath1230" x="570" y="150" stroke="rgba(150, 102, 255, 1)"></use><use xlink:href="#SvgjsPath1230" x="570" y="210" stroke="rgba(150, 102, 255, 1)"></use><use xlink:href="#SvgjsPath1233" x="570" y="270" stroke="rgba(150, 102, 255, 1)"></use><use xlink:href="#SvgjsPath1230" x="570" y="330" stroke="rgba(150, 102, 255, 1)"></use><use xlink:href="#SvgjsPath1230" x="570" y="390" stroke="rgba(150, 102, 255, 1)"></use><use xlink:href="#SvgjsPath1232" x="570" y="450" stroke="rgba(150, 102, 255, 1)"></use><use xlink:href="#SvgjsPath1230" x="570" y="510" stroke="rgba(150, 102, 255, 1)"></use><use xlink:href="#SvgjsPath1232" x="570" y="570" stroke="rgba(150, 102, 255, 1)"></use><use xlink:href="#SvgjsPath1231" x="570" y="630" stroke="rgba(150, 102, 255, 1)"></use><use xlink:href="#SvgjsPath1230" x="570" y="690" stroke="rgba(150, 102, 255, 1)"></use><use xlink:href="#SvgjsPath1232" x="630" y="30" stroke="rgba(150, 102, 255, 1)"></use><use xlink:href="#SvgjsPath1230" x="630" y="90" stroke="rgba(150, 102, 255, 1)"></use><use xlink:href="#SvgjsPath1231" x="630" y="150" stroke="rgba(150, 102, 255, 1)"></use><use xlink:href="#SvgjsPath1232" x="630" y="210" stroke="rgba(150, 102, 255, 1)"></use><use xlink:href="#SvgjsPath1230" x="630" y="270" stroke="rgba(150, 102, 255, 1)"></use><use xlink:href="#SvgjsPath1233" x="630" y="330" stroke="rgba(150, 102, 255, 1)"></use><use xlink:href="#SvgjsPath1231" x="630" y="390" stroke="rgba(150, 102, 255, 1)"></use><use xlink:href="#SvgjsPath1230" x="630" y="450" stroke="rgba(150, 102, 255, 1)"></use><use xlink:href="#SvgjsPath1230" x="630" y="510" stroke="rgba(150, 102, 255, 1)"></use><use xlink:href="#SvgjsPath1230" x="630" y="570" stroke="rgba(150, 102, 255, 1)"></use><use xlink:href="#SvgjsPath1232" x="630" y="630" stroke="rgba(150, 102, 255, 1)"></use><use xlink:href="#SvgjsPath1232" x="630" y="690" stroke="rgba(150, 102, 255, 1)"></use><use xlink:href="#SvgjsPath1230" x="690" y="30" stroke="rgba(150, 102, 255, 1)"></use><use xlink:href="#SvgjsPath1230" x="690" y="90" stroke="rgba(150, 102, 255, 1)"></use><use xlink:href="#SvgjsPath1235" x="690" y="150" stroke="rgba(150, 102, 255, 1)"></use><use xlink:href="#SvgjsPath1231" x="690" y="210" stroke="rgba(150, 102, 255, 1)"></use><use xlink:href="#SvgjsPath1231" x="690" y="270" stroke="rgba(150, 102, 255, 1)"></use><use xlink:href="#SvgjsPath1230" x="690" y="330" stroke="rgba(150, 102, 255, 1)"></use><use xlink:href="#SvgjsPath1230" x="690" y="390" stroke="rgba(150, 102, 255, 1)"></use><use xlink:href="#SvgjsPath1230" x="690" y="450" stroke="rgba(150, 102, 255, 1)"></use><use xlink:href="#SvgjsPath1231" x="690" y="510" stroke="rgba(150, 102, 255, 1)"></use><use xlink:href="#SvgjsPath1235" x="690" y="570" stroke="rgba(150, 102, 255, 1)"></use><use xlink:href="#SvgjsPath1232" x="690" y="630" stroke="rgba(150, 102, 255, 1)"></use><use xlink:href="#SvgjsPath1231" x="690" y="690" stroke="rgba(150, 102, 255, 1)"></use></symbol></svg>